<svg xmlns="http://www.w3.org/2000/svg" viewBox="4549.383 -4388.041 23.425 21.206">
  <defs>
    <style>
      .cls-1 {
        fill: #818CF8;
      }
    </style>
  </defs>
  <g id="Group_13962" data-name="Group 13962" transform="translate(3989 -4702)">
    <path id="Path_18155" data-name="Path 18155" class="cls-1" d="M-24.616-60.076c0,.775.021,1.451-.011,2.124-.011.24-.11.644-.237.673a.974.974,0,0,1-.778-.2c-1.367-1.316-2.7-2.667-4.047-4.006a.652.652,0,0,1,.023-1.067c1.329-1.314,2.636-2.65,3.975-3.954a2.417,2.417,0,0,1,.763-.333,2.681,2.681,0,0,1,.3.758c.043.644.014,1.292.014,2a46.9,46.9,0,0,0,6.262-.056,3.729,3.729,0,0,0,2.407-5.643,1.022,1.022,0,0,1,.212-1.581A18.693,18.693,0,0,0-14.278-72.8c.4-.412.73-.425,1.091.052a7.481,7.481,0,0,1,1.083,7.94,7.4,7.4,0,0,1-6.584,4.7c-1.623.121-3.262.027-4.893.031h-1.035" transform="translate(595.226 392.43)"/>
    <path id="Path_18156" data-name="Path 18156" class="cls-1" d="M-45.1-13.052c.861,0,1.724-.035,2.583.011.646.035.841-.228.8-.83a8.829,8.829,0,0,1,.007-1.424c.018-.207.138-.54.271-.572a.87.87,0,0,1,.7.177c1.4,1.366,2.8,2.747,4.145,4.168a.912.912,0,0,1-.039.888c-1.333,1.4-2.709,2.749-4.094,4.093a.823.823,0,0,1-.68.235c-.169-.073-.221-.423-.316-.655a.53.53,0,0,1,0-.177c-.04-1.989-.04-1.989-2-1.989-1.128,0-2.258-.031-3.385.014a3.81,3.81,0,0,0-3.225,5.879.942.942,0,0,1-.2,1.435,16.054,16.054,0,0,0-1.465,1.43c-.476.523-.8.4-1.21-.1a7.763,7.763,0,0,1,4.393-12.368,28.21,28.21,0,0,1,3.714-.3l.006.084" transform="translate(615.27 329.842)"/>
  </g>
</svg>
