<?xml version="1.0" encoding="UTF-8"?>
<svg width="12px" height="13px" viewBox="0 0 12 13" version="1.1" xmlns="http://www.w3.org/2000/svg" xmlns:xlink="http://www.w3.org/1999/xlink">
    <title>Combined Shape</title>
    <g id="Bills" stroke="none" stroke-width="1" fill="none" fill-rule="evenodd">
        <g id="Billing-Bills---Actions" transform="translate(-1283.000000, -602.000000)" fill="#D57F73" fill-rule="nonzero">
            <g id="Group-2" transform="translate(1259.000000, 463.000000)">
                <path d="M24.6225596,142.139178 L24.6225596,151.285 L34.8831857,151.285 L34.8831857,142.139178 L24.6225596,142.139178 L24.6225596,142.139178 Z M27.7506577,149.257988 C27.7506577,149.540778 27.5216824,149.770281 27.2388926,149.770281 C26.9561029,149.770281 26.7271275,149.540778 26.7271275,149.257988 L26.7271275,144.165134 C26.7271275,143.882344 26.9561029,143.652842 27.2388926,143.652842 C27.5216824,143.652842 27.7506577,143.882344 27.7506577,144.165134 L27.7506577,149.257988 Z M30.2646377,149.257988 C30.2646377,149.540778 30.0356624,149.770281 29.7528727,149.770281 C29.4700829,149.770281 29.2411076,149.540778 29.2411076,149.257988 L29.2411076,144.165134 C29.2411076,143.882344 29.4700829,143.652842 29.7528727,143.652842 C30.0356624,143.652842 30.2646377,143.882344 30.2646377,144.165134 L30.2646377,149.257988 Z M32.7786178,149.257988 C32.7786178,149.540778 32.5496425,149.770281 32.2668527,149.770281 C31.9840629,149.770281 31.7550876,149.540778 31.7550876,149.257988 L31.7550876,144.165134 C31.7550876,143.882344 31.9840629,143.652842 32.2668527,143.652842 C32.5496425,143.652842 32.7786178,143.882344 32.7786178,144.165134 L32.7786178,149.257988 Z M35.5057453,139.961274 L35.5046901,141.327212 L24,141.319298 L24.0010552,139.95336 L27.241003,139.955471 C27.7685959,139.955998 28.1970013,139.52812 28.1970013,139 L31.3108544,139.00211 C31.3103268,139.530231 31.7382046,139.958636 32.2657975,139.959164 L35.5057453,139.961274 Z" id="Combined-Shape"></path>
            </g>
        </g>
    </g>
</svg>